<svg xmlns="http://www.w3.org/2000/svg" width="162.496" height="39.752" viewBox="0 0 162.496 39.752">
  <path id="Dribbble_Logo" data-name="Dribbble Logo" d="M112.948,39.752h-.127a6.875,6.875,0,0,1-4.579-1.807,11.861,11.861,0,0,1-2.755-3.88,22.428,22.428,0,0,1-1.7-5.611l0,.005a8.616,8.616,0,0,1-3.586,2.065l0-.043a13.284,13.284,0,0,1-1.782,5.048,8.188,8.188,0,0,1-7.183,4.049h-.12a6.333,6.333,0,0,1-4.353-1.765,12.474,12.474,0,0,1-2.736-3.885,24.276,24.276,0,0,1-1.827-5.65,7.245,7.245,0,0,1-3.626,1.727l0-.031,0-.036v-.02a15.292,15.292,0,0,1-1.445,4.732,9.518,9.518,0,0,1-2.742,3.387,7.947,7.947,0,0,1-4.874,1.54h-.041a7.225,7.225,0,0,1-5.67-2.758,9.593,9.593,0,0,1-2.33-5.257.284.284,0,0,0,.01-.112,1.658,1.658,0,0,0-.128.31l0,.008a20.454,20.454,0,0,1-1.783,3.759c-1.681,2.707-3.675,4.08-5.925,4.08l-.111,0c-2.219-.065-4.144-1.555-5.422-4.2l0,.007c-1.37,1.567-3.663,4.189-6.228,4.189a4.84,4.84,0,0,1-3.675-1.4c-1.871-1.93-2.641-6.066-2.424-13.017.03-1.3-.071-1.766-1.32-1.955-.323-.053-.642-.126-.941-.2l-.008,0-.029-.006-.066-.015L33.391,23l-.007,0-.01,0c-.358-.085-.8-.19-1.253-.259-.024.081-.066.289-.134.643l-.005.024A46.452,46.452,0,0,1,29.337,32.6c-1.956,4.543-4.428,6.9-7.347,7.019-.056,0-.112,0-.167,0-2.333,0-3.686-1.954-4.774-3.524l-.008-.011-.032-.045-.036-.052-.033-.047,0-.005-.015-.023-.015-.022-.02-.029-.015-.023a8.842,8.842,0,0,1-7.415,3.851,9.075,9.075,0,0,1-6.837-2.979A10.66,10.66,0,0,1,0,29.524a10.659,10.659,0,0,1,2.618-7.19,9.075,9.075,0,0,1,6.837-2.979,4.932,4.932,0,0,1,1.779.287l.01,0c.119.037.248.076.392.118a49.126,49.126,0,0,1-.126-12.076A11.188,11.188,0,0,1,13.8,1.84,5.37,5.37,0,0,1,18.04.069a4.66,4.66,0,0,1,3.513,2.379c1.059,1.581,2.29,4.55,2.136,9.721-.156,5.211-1.677,11.387-4.521,18.356.795,2.618,1.958,4.121,3.193,4.121.973,0,1.934-.927,2.781-2.681a32.223,32.223,0,0,0,2.315-8.705,16.458,16.458,0,0,0,.06-3.073c-.078-1.886-.145-3.515.975-3.847a4.29,4.29,0,0,1,1.184-.19A3.2,3.2,0,0,1,32.2,17.616a3.116,3.116,0,0,0,1.288,1.07,13.024,13.024,0,0,0,2.424.506h.008l.021,0h.016c.41.055.92.124,1.528.251,2.63.515,3.577,1.958,3.27,4.981q-.028.281-.055.572c-.374,3.822-.886,9.056,1.03,9.718a1,1,0,0,0,.347.056c1.5,0,3.792-2.7,4.217-4.215a11.743,11.743,0,0,0,.6-3.421,32.321,32.321,0,0,1,.582-6.433c.177-.71.382-1.256,1.257-1.292.118,0,.251-.011.428-.024h.019l.042,0c.251-.018.543-.038.839-.038a2,2,0,0,1,1.227.278c.7.526.669,1.059.592,2.347-.006.1-.012.2-.018.311-.276,6.817.2,11.065,1.37,12.286a1.077,1.077,0,0,0,.786.369c.893,0,2.017-1.208,3.163-3.4a31.667,31.667,0,0,0,2.568-7.069,80.118,80.118,0,0,1,.032-13.08c.475-4.872,1.511-8.232,3.078-9.988A3.863,3.863,0,0,1,65.638,0c.052,0,.11,0,.224,0A4.254,4.254,0,0,1,69.2,1.469a5.108,5.108,0,0,1,1.181,2.863,31.54,31.54,0,0,1-1.245,9.906A48.8,48.8,0,0,1,65.143,24.6c-.6,3.987.023,7.4,1.713,9.366A4.062,4.062,0,0,0,69.9,35.512a3.991,3.991,0,0,0,2.975-1.485,9.086,9.086,0,0,0,1.9-4.54A8.275,8.275,0,0,1,70.92,24.1a3.6,3.6,0,0,1,.744-3.26,1.7,1.7,0,0,1,1.269-.429,5.766,5.766,0,0,1,3.44,1.387,5.2,5.2,0,0,1,1.971,3.912,4.6,4.6,0,0,0,2.889-1.847c.05-.073.074-.108.088-.108s.011.008.014.027a73.976,73.976,0,0,1,.082-12.7C81.911,6.433,82.947,3.2,84.5,1.46A4.028,4.028,0,0,1,87.4,0c.05,0,.111,0,.225,0a4.254,4.254,0,0,1,3.333,1.469,5.108,5.108,0,0,1,1.181,2.863,31.542,31.542,0,0,1-1.245,9.906A48.8,48.8,0,0,1,86.9,24.6c-.6,3.988.023,7.4,1.713,9.366a4.062,4.062,0,0,0,3.047,1.542,3.99,3.99,0,0,0,2.974-1.485,9.086,9.086,0,0,0,1.9-4.54C95.407,29.269,93.444,27.261,92.6,25a4.243,4.243,0,0,1,.306-4.164,1.2,1.2,0,0,1,1-.411,6.53,6.53,0,0,1,3.627,1.7,6.821,6.821,0,0,1,2.506,3.725,4.562,4.562,0,0,0,2.773-1.808c.047-.071.077-.115.093-.115s.011.008.014.027a73.976,73.976,0,0,1,.082-12.7c.494-4.647,1.53-7.883,3.079-9.62a4.028,4.028,0,0,1,2.9-1.456c.05,0,.109,0,.224,0a4.255,4.255,0,0,1,3.334,1.469,5.109,5.109,0,0,1,1.181,2.863,31.542,31.542,0,0,1-1.245,9.906,48.6,48.6,0,0,1-3.987,10.366c-.6,3.988.023,7.4,1.713,9.366a4.062,4.062,0,0,0,3.047,1.542,3.99,3.99,0,0,0,2.974-1.485,9.086,9.086,0,0,0,1.9-4.54c-1.6-.267-3.539-2.381-4.224-4.614a4.014,4.014,0,0,1,.861-4.291,1.037,1.037,0,0,1,.741-.25c1.7,0,5.195,2.5,6.135,5.466a6.8,6.8,0,0,0,2.435-.553l.04-.016.01,0,.021-.008c.057-.023.094-.037.119-.044a47.828,47.828,0,0,1-.867-13.375c.372-4.4,1.461-7.928,3.066-9.937A4.845,4.845,0,0,1,130.223,0h.156a4.96,4.96,0,0,1,3.99,1.6,7.555,7.555,0,0,1,1.557,3.918,26.842,26.842,0,0,1-.2,7.32A29.369,29.369,0,0,1,132.221,23.5a19.362,19.362,0,0,1-3.067,4.075.83.83,0,0,0-.105.112,19.178,19.178,0,0,0,1.594,4.257c1.252,2.331,2.759,3.513,4.48,3.513A6.038,6.038,0,0,0,138.8,33.86l0-.008,0-.007,0-.007,0-.007-.007-.015a11.839,11.839,0,0,1-.877-2.542,13.105,13.105,0,0,1,1.662-9.758,8.116,8.116,0,0,1,5.4-3.472,7.862,7.862,0,0,1,1.348-.119,6.04,6.04,0,0,1,3.828,1.253,5.58,5.58,0,0,1,1.993,3.706,10.216,10.216,0,0,1-2.309,7.75,13.543,13.543,0,0,1-4.525,3.851.447.447,0,0,0-.066-.035A7.446,7.446,0,0,0,146.5,35a10.185,10.185,0,0,0,3.229.546,8.741,8.741,0,0,0,4.946-1.513,14.665,14.665,0,0,0,4.868-6.228c.173-.37.368-.543.615-.543a1.134,1.134,0,0,1,.621.262c.409.288,2.415,2.223,1.464,3.865-3.953,6.711-9.08,8.121-12.684,8.122a13.714,13.714,0,0,1-8.091-2.557c-.126.086-.252.175-.358.251l-.089.062-.054.039-.012.008-.006.005a10.359,10.359,0,0,1-5.967,2.4c-.17,0-.341-.006-.511-.018a7.577,7.577,0,0,1-4.308-1.794,13.031,13.031,0,0,1-2.866-3.475,21.413,21.413,0,0,1-2.121-5.028,11.388,11.388,0,0,1-3.138.708h-.031A11.418,11.418,0,0,1,119.945,36,8.319,8.319,0,0,1,112.948,39.752ZM9.011,23.262a4.685,4.685,0,0,0-3.836,1.928A7.231,7.231,0,0,0,3.8,29.575,7.12,7.12,0,0,0,5.26,33.962,4.962,4.962,0,0,0,9.183,35.89a5.782,5.782,0,0,0,5.668-4.678c-.087-.2-.174-.4-.261-.6l-.009-.022-.007-.015c-.369-.842-.718-1.638-1.028-2.568-.29-.863-.871-2.732-1.087-3.583A4.365,4.365,0,0,0,9.011,23.262Zm136.963-1.275a1.578,1.578,0,0,0-.255.019,4.18,4.18,0,0,0-2.749,1.8A7.49,7.49,0,0,0,142,29.66a7.152,7.152,0,0,0,.675,1.864c4.111-2.763,5.836-5.423,5.273-8.131A2.044,2.044,0,0,0,145.974,21.987ZM17.959,4.577a1.549,1.549,0,0,0-1.126.524c-1.517,1.568-1.922,6.2-1.808,9.682a31.32,31.32,0,0,0,1.894,9.45.483.483,0,0,0,.132.137.408.408,0,0,1,.128.153,30.371,30.371,0,0,0,2.486-11.909c.054-3.888-.574-6.68-1.181-7.629C18.31,4.714,18.133,4.577,17.959,4.577Zm112.687-.56c-.027,0-.054,0-.094.005a2.8,2.8,0,0,0-1.776,1.393c-1.376,2.2-1.693,6.4-1.716,9.542a41.474,41.474,0,0,0,.636,8.22A25.578,25.578,0,0,0,131.92,12.7c.583-3.339.485-6.427-.25-7.868C131.4,4.291,131.051,4.017,130.646,4.017Zm-21.454.9a1.174,1.174,0,0,0-.887.461c-1.067,1.217-1.486,4.555-1.65,7.14a46.189,46.189,0,0,0,.066,7.283c1.35-2.164,3.738-11.97,2.953-14.386a.73.73,0,0,0-.362-.491A1.068,1.068,0,0,0,109.192,4.916ZM87.606,4.743a1.174,1.174,0,0,0-.887.461c-1.067,1.217-1.486,4.555-1.65,7.14a46.214,46.214,0,0,0,.066,7.283c1.35-2.164,3.738-11.97,2.953-14.386a.73.73,0,0,0-.363-.49A1.009,1.009,0,0,0,87.606,4.743Zm-21.759,0a1.177,1.177,0,0,0-.887.461c-1.068,1.218-1.486,4.555-1.649,7.14a46.245,46.245,0,0,0,.066,7.283c1.35-2.163,3.737-11.969,2.952-14.386a.723.723,0,0,0-.363-.49A.962.962,0,0,0,65.847,4.743Zm-16.2,11.251a3.373,3.373,0,1,1,3.367-3.373A3.374,3.374,0,0,1,49.648,15.994Z" fill="#ddd"/>
</svg>
