<svg id="iOS_Icon" data-name="iOS Icon" xmlns="http://www.w3.org/2000/svg" xmlns:xlink="http://www.w3.org/1999/xlink" width="188.872" height="188.872" viewBox="0 0 188.872 188.872">
  <defs>
    <linearGradient id="linear-gradient" x1="0.5" x2="0.5" y2="1" gradientUnits="objectBoundingBox">
      <stop offset="0" stop-color="#2e71f2"/>
      <stop offset="1" stop-color="#2b67da"/>
    </linearGradient>
    <clipPath id="clip-path">
      <path id="Shape" d="M188.834,52.429c-.027-3.014-.046-4.242-.074-5.669a76.553,76.553,0,0,0-1.075-12.354,42.644,42.644,0,0,0-3.773-11.767A43.049,43.049,0,0,0,166.231,4.96a42.529,42.529,0,0,0-11.765-3.774A76.074,76.074,0,0,0,142.11.112c-1.426-.028-2.654-.047-5.669-.074C133.579.009,131.231,0,129.5,0H59.366c-1.731,0-4.08.009-6.939.038-3.016.027-4.242.046-5.668.074A76.023,76.023,0,0,0,34.4,1.185,42.618,42.618,0,0,0,22.636,4.96,43.066,43.066,0,0,0,4.958,22.638,42.535,42.535,0,0,0,1.187,34.405,76.02,76.02,0,0,0,.11,46.759C.082,48.187.065,49.414.036,52.429.009,55.288,0,57.637,0,59.368v70.139c0,1.731.009,4.08.036,6.94.028,3.016.046,4.242.074,5.668A75.993,75.993,0,0,0,1.187,154.47a42.535,42.535,0,0,0,3.771,11.767,43.025,43.025,0,0,0,17.678,17.677A42.612,42.612,0,0,0,34.4,187.685a76.019,76.019,0,0,0,12.355,1.077c1.426.027,2.652.046,5.668.074,2.86.027,5.208.036,6.939.036H129.5c1.731,0,4.08-.009,6.941-.036,3.016-.028,4.243-.047,5.669-.074a76.07,76.07,0,0,0,12.357-1.077,42.523,42.523,0,0,0,11.765-3.771,43.008,43.008,0,0,0,17.681-17.677,42.644,42.644,0,0,0,3.773-11.767,76.525,76.525,0,0,0,1.075-12.356c.028-1.426.047-2.652.074-5.668.025-2.86.038-5.208.038-6.94V59.368c0-1.731-.013-4.08-.038-6.94" fill="url(#linear-gradient)"/>
    </clipPath>
  </defs>
  <path id="Shape-2" data-name="Shape" d="M188.834,52.429c-.027-3.014-.046-4.242-.074-5.669a76.553,76.553,0,0,0-1.075-12.354,42.644,42.644,0,0,0-3.773-11.767A43.049,43.049,0,0,0,166.231,4.96a42.529,42.529,0,0,0-11.765-3.774A76.074,76.074,0,0,0,142.11.112c-1.426-.028-2.654-.047-5.669-.074C133.579.009,131.231,0,129.5,0H59.366c-1.731,0-4.08.009-6.939.038-3.016.027-4.242.046-5.668.074A76.023,76.023,0,0,0,34.4,1.185,42.618,42.618,0,0,0,22.636,4.96,43.066,43.066,0,0,0,4.958,22.638,42.535,42.535,0,0,0,1.187,34.405,76.02,76.02,0,0,0,.11,46.759C.082,48.187.065,49.414.036,52.429.009,55.288,0,57.637,0,59.368v70.139c0,1.731.009,4.08.036,6.94.028,3.016.046,4.242.074,5.668A75.993,75.993,0,0,0,1.187,154.47a42.535,42.535,0,0,0,3.771,11.767,43.025,43.025,0,0,0,17.678,17.677A42.612,42.612,0,0,0,34.4,187.685a76.019,76.019,0,0,0,12.355,1.077c1.426.027,2.652.046,5.668.074,2.86.027,5.208.036,6.939.036H129.5c1.731,0,4.08-.009,6.941-.036,3.016-.028,4.243-.047,5.669-.074a76.07,76.07,0,0,0,12.357-1.077,42.523,42.523,0,0,0,11.765-3.771,43.008,43.008,0,0,0,17.681-17.677,42.644,42.644,0,0,0,3.773-11.767,76.525,76.525,0,0,0,1.075-12.356c.028-1.426.047-2.652.074-5.668.025-2.86.038-5.208.038-6.94V59.368c0-1.731-.013-4.08-.038-6.94" transform="translate(0 0)" fill="url(#linear-gradient)"/>
  <g id="Group_1" data-name="Group 1" transform="translate(0 0)" clip-path="url(#clip-path)">
    <path id="Baikal_Logo" data-name="Baikal Logo" d="M46.5,93c-.737,0-1.472-.017-2.185-.05a46.514,46.514,0,0,1-16.4-89.074A46.062,46.062,0,0,1,46.5,0c.734,0,1.468.017,2.182.05a46.514,46.514,0,0,1,16.4,89.074A46.062,46.062,0,0,1,46.5,93ZM38.628,49.262a7.337,7.337,0,0,0-3.36.819c-.04.025-4.032,2.49-8.006,5.48a20.532,20.532,0,0,0-4.9,4.658c-1.087,1.66-1.116,3.132-.088,4.5a30.71,30.71,0,0,0,9.556,8.33A30,30,0,0,0,44.4,76.767c.71.05,1.429.075,2.138.075A30.079,30.079,0,0,0,64.04,71.247a30.542,30.542,0,0,0,6.567-6.331,30.2,30.2,0,0,0,4.433-8.1,1.88,1.88,0,0,0-.721-2.159.043.043,0,0,0-.012-.008l-2.87-2.04a7.308,7.308,0,0,0-7.591-.531L56.861,55.7a7.3,7.3,0,0,1-7.591-.532l-6.41-4.553A7.264,7.264,0,0,0,38.628,49.262Zm.87-12.779a7.271,7.271,0,0,1,4.233,1.35l6.409,4.553a7.3,7.3,0,0,0,7.592.532c.04-.024,4.02-2.48,8.006-5.479a20.523,20.523,0,0,0,4.9-4.659c1.087-1.66,1.116-3.131.088-4.5a30.712,30.712,0,0,0-9.556-8.329A30.012,30.012,0,0,0,48.6,16.233c-.7-.049-1.42-.075-2.137-.075a30.079,30.079,0,0,0-17.505,5.595,30.564,30.564,0,0,0-6.566,6.331,30.21,30.21,0,0,0-4.434,8.1,1.883,1.883,0,0,0,.722,2.16l.006,0,.005,0,2.871,2.039a7.3,7.3,0,0,0,7.59.531L36.139,37.3A7.331,7.331,0,0,1,39.5,36.483Z" transform="translate(47.766 48.369)" fill="#f9f9f9"/>
  </g>
</svg>
