<svg xmlns="http://www.w3.org/2000/svg" width="107.343" height="38.685" viewBox="0 0 107.343 38.685">
  <path id="Nike_Logo" data-name="Nike Logo" d="M13.752,1.713C6.77,9.934.068,20.117,0,27.728A9.034,9.034,0,0,0,3.076,34.99a14.957,14.957,0,0,0,10.087,3.694c5.048.01,10.067-2.031,13.994-3.607C33.771,32.428,106.891.64,106.891.64c.706-.358.571-.8-.309-.58-.358.087-79.6,21.595-79.6,21.595a17.713,17.713,0,0,1-4.613.658c-6.093.039-11.508-3.346-11.469-10.483A23.435,23.435,0,0,1,13.752,1.713" fill="#ddd"/>
</svg>
