<svg xmlns="http://www.w3.org/2000/svg" width="182.045" height="37.718" viewBox="0 0 182.045 37.718">
  <path id="Tumblr_Logo" data-name="Tumblr Logo" d="M33.862,37.718c-3.805,0-6.644-1.263-8.437-3.755a12.021,12.021,0,0,1-2-6.861V10.435h9v16.2c0,2.018.42,4.081,3.532,4.081.046,0,.094,0,.141,0a5.078,5.078,0,0,0,4.218-1.854,4.385,4.385,0,0,0,.878-2.46l.012-9.075c-.01-.738-.342-1.053-1.111-1.053H37.741V10.435H49.965v19.9A1.08,1.08,0,0,0,51.11,31.5c.62.042,1.41.1,1.419.1v5.715H42.5l-.073-3.351a11.43,11.43,0,0,1-8.088,3.741C34.164,37.716,34.008,37.718,33.862,37.718ZM14.7,37.711a12.141,12.141,0,0,1-4.96-.957,8.764,8.764,0,0,1-3.2-2.407,10.114,10.114,0,0,1-2.233-6.392v-11.3H0V11.3A10.372,10.372,0,0,0,5.673,6.7,13.277,13.277,0,0,0,7.342,1.46a.291.291,0,0,1,.268-.273h5.466v9.247H20.01v6.222H13.049V27.389a4.189,4.189,0,0,0,.657,2.373,3.167,3.167,0,0,0,2.777,1.232l.157,0a8.99,8.99,0,0,0,3.013-.63l1.8,5.207a5.367,5.367,0,0,1-2.456,1.416,13.572,13.572,0,0,1-4.007.723C14.889,37.71,14.8,37.711,14.7,37.711Zm108.761-.046a11.63,11.63,0,0,1-7.269-2.58l-.04-.032a1.22,1.22,0,0,0-.1-.077l-1.028,2.314-7.2.008V9.089c-.01-.728-.354-1.053-1.116-1.053l-2.521,0,.13-5.715A53.4,53.4,0,0,0,113.449,0h3.15V12.48a10.549,10.549,0,0,1,6.276-2.431c.252-.01.5-.015.745-.015,4.39,0,7.581,1.76,9.484,5.231a17.982,17.982,0,0,1,1.88,8.3c0,4.025-.866,7.292-2.574,9.711a10.308,10.308,0,0,1-7.558,4.312A11.764,11.764,0,0,1,123.464,37.665Zm-2.255-20.971c-.106,0-.16,0-.206,0A5.216,5.216,0,0,0,117.8,17.84a3.245,3.245,0,0,0-1.2,2.472v8.074a4.968,4.968,0,0,0,4.5,2.688c.177,0,.321-.005.44-.016,1.482-.109,4.567-.334,4.567-7.387C126.11,19.237,124.324,16.694,121.209,16.694Zm55.569,20.937a5.159,5.159,0,1,1,5.267-5.157A5.219,5.219,0,0,1,176.778,37.631ZM70.085,37.322h0l-14.71,0V31.6l.019,0,.038,0,.088-.006.3-.02c.414-.03,1.02-.072,1.39-.1a1.1,1.1,0,0,0,1.148-1.2V17.365c-.01-.727-.353-1.052-1.111-1.052l-2.5-.037V10.434H65.621l.261,3.5a9.191,9.191,0,0,1,3.46-2.757,11.528,11.528,0,0,1,4.369-1.1c.255-.012.511-.018.762-.018,3.667,0,6.463,1.353,8.311,4.022l.167.2.273-.345a9.191,9.191,0,0,1,3.46-2.757,11.535,11.535,0,0,1,4.368-1.1c.27-.012.52-.018.766-.018a10.169,10.169,0,0,1,8.36,3.7c1.959,2.5,1.959,5.613,1.959,8.363v8.156a1.1,1.1,0,0,0,1.14,1.2c.678.046,1.837.128,1.837.128v5.715H90.4V31.6l.077-.006.067,0,.226-.015.162-.011.272-.019.053,0,.979-.069a1.1,1.1,0,0,0,1.147-1.2l0-1.475V21.137c0-2.744-1.265-4.079-3.868-4.079a4.784,4.784,0,0,0-3.894,1.68,4.654,4.654,0,0,0-1.018,2.775c0,1.117-.008,5.839-.011,7.855v.9h.022a1.1,1.1,0,0,0,1.141,1.2c.679.046,1.838.128,1.838.128v5.715H72.9V31.6l.036,0h.015l.138-.01.355-.026,1.294-.09a1.1,1.1,0,0,0,1.147-1.2s0-6.944,0-9.137c0-1.9-.424-4.079-3.727-4.079a4.918,4.918,0,0,0-3.959,1.68,4.612,4.612,0,0,0-1.083,2.775c0,1.346-.009,7.217-.012,8.689v.071a1.106,1.106,0,0,0,1.147,1.2c.679.046,1.838.128,1.838.128v5.718Zm98.42-.028H153.813V31.579l.028,0h.012l.033,0,.158-.011.2-.014c.416-.03,1.03-.073,1.4-.1a1.115,1.115,0,0,0,1.149-1.2V17.3c-.01-.747-.321-1.052-1.072-1.052l-2.188,0V10.406h10.435l.822,2.469a10.731,10.731,0,0,1,7.243-2.887,6.893,6.893,0,0,1,4.246,1.279,5.111,5.111,0,0,1,1.951,3.969,4.859,4.859,0,0,1-5.107,4.7,4.963,4.963,0,0,1-2.506-.754,3.824,3.824,0,0,1-1.8-2.814c-2.147.519-3.283,2.281-3.283,5.1l0,8.784a1.105,1.105,0,0,0,1.15,1.2c.588.038,1.8.126,1.822.128v5.714Zm-17.458,0H136.059V31.58l1.967-.129a1.1,1.1,0,0,0,1.147-1.2V9.085c-.01-.737-.341-1.052-1.107-1.052h-2.4V2.318A48.625,48.625,0,0,0,144.757,0h3.182l-.008,30.251a1.1,1.1,0,0,0,1.148,1.2l1.968.129v5.713Z" fill="#ddd"/>
</svg>
