<svg id="Vans_Logo" data-name="Vans Logo" xmlns="http://www.w3.org/2000/svg" width="118.94" height="50.852" viewBox="0 0 118.94 50.852">
  <path id="Fill_1" data-name="Fill 1" d="M33.287,50.852c-3.94-.072-6.962-1.132-9.242-3.241-1.112-1-.929-2.3-.752-3.558a4.28,4.28,0,0,0-.3-3.05c-1.1-1.015-2.609-1.1-4.069-1.18a13.614,13.614,0,0,1-1.953-.2l-6.225-.206C9.7,39.2,9.236,38.325,8.791,37.477l0-.007-.017-.034-.013-.025L8.749,37.4l-.013-.025-.008-.015-.005-.009-.005-.009-.006-.012a7.422,7.422,0,0,0-.441-.751L.151,21.71A5.592,5.592,0,0,1,.7,17.964l.019-.051L.727,17.9l0-.011.011-.029.012-.032c.1-.272.206-.538.294-.8l.919-.795c8.349-.519,15.738-3.985,22.884-7.336l.044-.021.012-.006.012-.006.042-.019.022-.01.007,0,.007,0c3.276-1.539,6.664-3.13,10.23-4.439a78.58,78.58,0,0,1,12.23-3.225A73.153,73.153,0,0,1,60.37,0,65.037,65.037,0,0,1,73.477,1.3,62.24,62.24,0,0,1,87.661,5.632l.009,0c8.21,4.086,17.516,8.716,27.306,11.874a6.953,6.953,0,0,1,3.9,3.681c.583,4.587-3.139,7.832-6.423,10.7l-.005.005-.1.086c-.255.222-.492.429-.728.638a8.959,8.959,0,0,1-1.321.91l-.013.008-.008.005-.013.008-.019.011-.014.009-.005,0a5.269,5.269,0,0,0-1.991,1.69,12.381,12.381,0,0,1-.322,4.519,7.63,7.63,0,0,1-2.268,3.739,17.771,17.771,0,0,1-11.588,4.52,18,18,0,0,1-3.028-.279c-1.732-.552-2.518-2.249-3.174-3.939a1.609,1.609,0,0,0-1.511-.628,5.712,5.712,0,0,0-.735.048A100.919,100.919,0,0,1,63.647,45.5a124.9,124.9,0,0,1-13.635-.755L43.8,43.731c-1.356.153-1.581,1.261-1.8,2.332v.015l0,.007a4.5,4.5,0,0,1-.522,1.575C39.742,50.2,36.48,50.629,33.287,50.852ZM30.5,45.278a9.659,9.659,0,0,0-2.529.327,1.408,1.408,0,0,0-.842,1.518c1.491,1.76,3.858,2.13,5.582,2.13a13.537,13.537,0,0,0,2.964-.343A1.667,1.667,0,0,0,36.6,47.57l-.35-.547A10.148,10.148,0,0,0,30.5,45.278Zm-.586-1.383c3.846,0,7.086,1.321,9.123,3.72l.538.1a.981.981,0,0,0,.554-.621c.013-.081.03-.168.047-.259.117-.627.262-1.407-.282-1.732a15.757,15.757,0,0,0-10.5-3.493,24.3,24.3,0,0,0-3.431.252,2.07,2.07,0,0,0-1.207,1.788c-.007.361-.016.811.434.91A17.36,17.36,0,0,1,29.912,43.895ZM101.3,41.364a6.9,6.9,0,0,0-4.489,1.72c-.055.054-.113.109-.17.162l-.062.059c-.689.65-1.4,1.321-1.26,2.371a1.251,1.251,0,0,0,.9.629l.009,0c.117.035.231.07.34.115a8.5,8.5,0,0,0,6.554-3.131,1.364,1.364,0,0,0-.063-1.449l-.534-.365A6.7,6.7,0,0,0,101.3,41.364Zm1.292-3.319h0a14.969,14.969,0,0,0-6.32,1.723,20.674,20.674,0,0,0-5.343,4.108c-.1.229-.375,1.013.154,1.445A1.675,1.675,0,0,0,92.226,46c.623,0,1.066-.688,1.534-1.416l0-.005c.4-.613.8-1.248,1.332-1.435a10.256,10.256,0,0,1,6.786-2.905,7.118,7.118,0,0,1,2.556.465l.05.013a2.531,2.531,0,0,0,.634.11.633.633,0,0,0,.583-.281c.327-.316.235-.907.153-1.429l-.011-.071,0-.01-.018-.116c-.468-.833-1.435-.839-2.37-.844-.289,0-.589,0-.866-.029ZM12.341,36.2h0c-.415.2-.521.6-.632,1.029-.035.134-.071.272-.117.4-.064.245.084.325.242.41a.8.8,0,0,1,.2.136L24.56,39.314c5.027.459,9.938,1.4,14.687,2.316a122.477,122.477,0,0,0,18,2.531c2.408.187,4.837.282,7.219.282A86.115,86.115,0,0,0,85.029,42a78.4,78.4,0,0,0,18.8-7.267c.45-.249.913-.5,1.361-.747,4.371-2.389,9.326-5.1,12.187-9.294.077-.373.221-1.068-.246-1.363C108.267,30.109,100.5,34.47,92.674,37.052a75.509,75.509,0,0,1-14.113,3.6A96.348,96.348,0,0,1,63.505,41.8a110.75,110.75,0,0,1-15.137-1.056l-21.79-3.112q-.97-.129-1.936-.262a104.279,104.279,0,0,0-12.3-1.174Zm56.9-15.833c-.5.03-.961.05-1.511.074l-.082,0-.093,0-.121.005-.109,0a32.946,32.946,0,0,0-4.774.419l.05,1.987,1.225,17.088.166.632.146,0,.245,0,.172,0h.009c.181,0,.375-.006.58-.007h.035a34.389,34.389,0,0,0,5.775-.4,5.459,5.459,0,0,0-.317-2.444l-3.072-.056-.445-.367-.273-4.7.186-.267a3.655,3.655,0,0,1,1.035-.128,2.738,2.738,0,0,0,1.408-.282,11.268,11.268,0,0,0-.212-2.981,2.9,2.9,0,0,0-.671-.063c-.077,0-.158,0-.256.005l-.08,0h-.034l-.059,0-.042,0-.042,0-.062,0h-.03l-.082,0c-.1,0-.189.005-.267.005a2.575,2.575,0,0,1-1.08-.187l-.451-4.886.277-.356,3.259-.482v-.079a12.152,12.152,0,0,0-.133-2.45l-.271-.1ZM60.926,40.332c.144,0,.312.008.545.025a.318.318,0,0,0,.263-.143A.214.214,0,0,0,61.746,40l-1.194-18.62-.168-.45c-.089,0-.188,0-.351,0a7.958,7.958,0,0,0-2.817.392l.4,7.862-.187.269H57.38a5.639,5.639,0,0,0-.733.068l-.035,0-.012,0-.013,0-.02,0a6.082,6.082,0,0,1-.752.066,1.3,1.3,0,0,1-.914-.287c-.117-1.022-.183-2.061-.237-2.9l0-.029,0-.027,0-.036,0-.041,0-.044v-.009l0-.067v-.186a38.1,38.1,0,0,0-.486-4.622,10.867,10.867,0,0,1-1.432.106h-.086a9.576,9.576,0,0,0-1.468.111l-.1.539.869,16.541.251.906,3.065.327.271-.085L55.1,33.379l.184-.269h.033a5.059,5.059,0,0,0,.865-.1l.022,0a5.9,5.9,0,0,1,.916-.1,1.9,1.9,0,0,1,.783.156l.5,6.869a2.4,2.4,0,0,0,1.567.412c.094,0,.2,0,.326-.005l.1,0h.1l.1,0C60.727,40.334,60.83,40.332,60.926,40.332ZM75.748,19.944h0l-3.432.208-.274.177,3.9,18.491.348.816c.437-.083.926-.128,1.283-.161l.016,0h.141a7.682,7.682,0,0,0,2.456-.475l.659-6.309c0-.038,0-.077,0-.116V32.5c-.007-.221-.015-.45.092-.561a.247.247,0,0,1,.186-.069h.006c.111.482.2.921.31,1.434l.005.026,0,.018,0,.019.013.066.026.12.031.148,0,.008,0,.007v.006l0,.007v.014l0,.012.005.024a34.563,34.563,0,0,0,1.19,4.621,18.86,18.86,0,0,0,3.733-.986l.075-.025c.566-7.172.863-12.792.964-18.222-.267-.006-.493-.009-.781-.009a8.566,8.566,0,0,0-2.2.225.67.67,0,0,1-.057.2l-.006.014,0,.009,0,.008c-.069.172-.146.367-.034.487l-.489,7.125c0,.061,0,.128,0,.186.007.315.015.641-.287.71-.569-2.44-1.07-5-1.489-7.612l-.43-1a5.69,5.69,0,0,1-.882.055l-.228,0h-.383l-.1,0a3.693,3.693,0,0,0-1.576.254c-.092.94-.168,1.956-.2,2.444l-.007.094-.01.138-.008.12,0,.044,0,.049,0,.052,0,.045,0,.046,0,.052,0,.061,0,.062,0,.055a59.04,59.04,0,0,1-.732,6.647l-.013-.072v-.008l0-.02-.009-.047-.005-.028,0-.021c-.549-2.951-1.116-6-1.416-9.13l-.352-.458Zm-31.962,5.01h0l.175.273c.238,2.352.438,4.821.584,6.623l.01.125,0,.031.01.124.009.117.01.12.01.126.007.094.012.145c.117,1.432.312,3.825.538,6.058l2.882.417.1-.272-.918-13.92.279-.354c.087,0,.173,0,.26,0a11.882,11.882,0,0,0,2.359-.225L50.07,22l-.266-.276-1.064.049-.081,0c-2.332.108-4.975.229-7.44.421a2.9,2.9,0,0,0-.133,1.859,5.918,5.918,0,0,1,.082.938ZM93.569,18.66a2.433,2.433,0,0,0-.466.069,12.05,12.05,0,0,1-1.255.077,5.848,5.848,0,0,0-2.453.4L88.083,36.424l.084.453a7.16,7.16,0,0,0,2.145-.57l.007,0,.006,0,.006,0,.006,0,.006,0,.006,0,.006,0,.013-.005.013-.005.014-.005.036-.013c.293-.111.607-.226.911-.321a5.1,5.1,0,0,0,.144-1.186v-.043a3.025,3.025,0,0,1,.453-1.83,2.728,2.728,0,0,0,.686-.189l.009,0,.008,0a2.759,2.759,0,0,1,.887-.208.976.976,0,0,1,.4.081,5.139,5.139,0,0,1,.4,1.142l0,.012,0,.013,0,.007v.006l0,.017,0,.014,0,.011,0,.009.009.036.005.019a6.272,6.272,0,0,0,.244.8,6.673,6.673,0,0,0,2.909-1.035c-.437-2.431-.955-4.731-1.456-6.955l-.012-.057,0-.008-.015-.07-.012-.055-.009-.043-.009-.042L96,26.358l-.009-.043-.017-.077-.011-.049-.012-.053-.011-.05-.008-.035-.008-.037-.009-.043,0-.012,0-.011-.015-.068-.038-.171c-.2-.9-.581-2.583-.908-4.142a3.145,3.145,0,0,1-.328-1.255C94.515,19.5,94.407,18.66,93.569,18.66ZM36.411,22.548A38.811,38.811,0,0,0,31,23c.1,4.768.5,9.2.929,13.286.361.039.754.118,1.07.181l.022,0,.039.007h.006a8.824,8.824,0,0,0,1.766.239c.1,0,.172,0,.248-.008a16.365,16.365,0,0,0-.077-2.458,13.675,13.675,0,0,1,0-3.235,6.94,6.94,0,0,1,1.3-.2h.026a6.029,6.029,0,0,0,1.3-.2c-.023-.3-.028-.591-.031-.892v-.049a5.914,5.914,0,0,0-.188-1.774,2.542,2.542,0,0,0-.5-.046,5.045,5.045,0,0,0-.589.043l-.022,0-.017,0-.018,0-.017,0-.016,0-.019,0h-.009l-.02,0a4.931,4.931,0,0,1-.593.048,1.531,1.531,0,0,1-.8-.2,4.5,4.5,0,0,0-.083-.791V26.97l0-.018,0-.011a1.768,1.768,0,0,1,.131-1.43c.346-.051.646-.079,1.1-.121l.054-.005H36l.051,0H36.1l.017,0a10.9,10.9,0,0,0,1.794-.261l-.048-2.255-.085-.273C37.288,22.561,36.826,22.548,36.411,22.548Zm-6.673.432h0c-.557.035-1.147.067-1.656.094H27.9c-1.555.085-3.164.172-4.676.409l-.093.178.607,11.114.263.37a18.508,18.508,0,0,0,3.155.42,11.552,11.552,0,0,0-.031-1.805v-.011a8.787,8.787,0,0,1,.012-2.07,2.337,2.337,0,0,1,1.33-.29h.038a2.384,2.384,0,0,0,1.35-.29l-.132-2.527-.264-.279H29.4c-.207,0-.422.019-.662.043h-.023l-.023,0a6.817,6.817,0,0,1-.692.043,1.534,1.534,0,0,1-1.06-.317c-.014-.111-.033-.223-.054-.342l0-.013,0-.026,0-.014a2.2,2.2,0,0,1,.1-1.591l2.62-.217a.863.863,0,0,0,.55-.353l-.229-2.174-.177-.361Zm-12.032.233a4.529,4.529,0,0,0-3.266,2.011,7.329,7.329,0,0,0-.862,3.911,10.4,10.4,0,0,0,.9,3.943,4.141,4.141,0,0,0,3.677,2.243c.054,0,.109,0,.164,0a4.434,4.434,0,0,0,3.559-2.1,9.644,9.644,0,0,0,.709-4.115A8.213,8.213,0,0,0,21.4,25.083a4.884,4.884,0,0,0-2.678-1.674A2.716,2.716,0,0,0,17.706,23.213Zm82.531-4.98a10.416,10.416,0,0,0-2.7.309c.084,4.322.241,9.9.722,14.727a23.82,23.82,0,0,0,5.1-2.434q0-.17.009-.323l0-.069v-.038a4.794,4.794,0,0,0-.237-2.1,3.559,3.559,0,0,0-.645.268l-.013.006-.006,0a1.962,1.962,0,0,1-.816.274.889.889,0,0,1-.246-.043,53.234,53.234,0,0,1-.586-7.05v-.029l-.005-.141c-.037-.942-.072-1.8-.124-2.724l-.17-.635C100.425,18.233,100.329,18.233,100.236,18.233Zm5.941-.43a10.077,10.077,0,0,0-2.678.307c.027.56.052,1.133.077,1.7v.01l.02.471v.018l.02.467.005.132.006.152.007.182v.135c.125,2.975.254,6.052.541,8.939a31.1,31.1,0,0,0,4-2.118l.007,0,.016-.009.015-.009.008,0,.007,0,.007,0,.008-.005.074-.044.047-.028.011-.007.087-.051.051-.03c.649-.387,1.154-.678,1.588-.915a5.146,5.146,0,0,0-.5-2.717,4.234,4.234,0,0,0-.8.381l-.012.007-.012.007-.006,0-.006,0-.006,0-.01.005-.014.008-.008.005-.014.008a2.908,2.908,0,0,1-1.442.518h-.027a29.2,29.2,0,0,1-.348-3.781V21.1c-.05-.9-.1-1.831-.227-2.753l-.17-.544C106.408,17.8,106.325,17.8,106.178,17.8ZM9.694,23.06a3.5,3.5,0,0,0-1.818.686,9.311,9.311,0,0,0,.949,2.112l0,.007.007.012.009.015,0,.006,0,.006c.219.391.467.834.673,1.3a.772.772,0,0,0,.244.041,2.52,2.52,0,0,0,1.224-.556c.1-.065.18-.121.262-.174A16.967,16.967,0,0,0,9.694,23.06Zm2.462-1.311h0a2.68,2.68,0,0,0-1.731.873,11.886,11.886,0,0,0,1.227,2.688l.011.018.045.079.053.1c.133.238.227.406.318.581.13-.064.273-.119.4-.167l.023-.009.036-.014.036-.013a2.545,2.545,0,0,0,1.236-.756,8.582,8.582,0,0,1-.72-1.536l0-.008,0-.008a6.842,6.842,0,0,0-.928-1.823ZM111.9,17.632a14.008,14.008,0,0,0-1.607,3.943l1.613.572a8.781,8.781,0,0,0,1.277-2.845l0-.008.011-.034,0-.012,0-.01.014-.046,0-.013.005-.015.007-.023.005-.016.024-.075.022-.067c.062-.191.146-.453.23-.688l-1.616-.663Zm-2.873-.773h0a14.739,14.739,0,0,0-1.324,3.353l0,.007,0,.014,0,.014-.086.284a3.16,3.16,0,0,0,1.789.759l1.516-3.854a5.369,5.369,0,0,0-1.884-.578ZM37.934,5.593a17.945,17.945,0,0,0-2.641.246c.767,2.5,1.614,5.072,2.175,6.776l.037.113.006.017.025.076.034.1.057.175.013.04.029.087.016.051.017.051c.627,1.908,1.406,4.278,2.115,6.588l.527.733,4.159-.195.455-.172,2.3-11.968.373-.532,2.619-.224L75.1,6.029c.52-.219.458-.716.4-1.2a1.956,1.956,0,0,1,0-.78.838.838,0,0,0-.186-.628.759.759,0,0,0-.573-.184,4.707,4.707,0,0,0-.678.073l-.026,0-.018,0-.011,0-.018,0h-.006a4.818,4.818,0,0,1-.711.076,1.513,1.513,0,0,1-.291-.028l-28.2,1.735-.28.356-2,10.526-.457.261c-.5-1.431-.914-2.9-1.316-4.319l-.008-.029-.008-.03-.011-.041-.015-.054-.015-.054L40.67,11.7l-.006-.023a59.359,59.359,0,0,0-1.937-6.047A7.563,7.563,0,0,0,37.934,5.593ZM52.318,9.318a11.075,11.075,0,0,0-3.284.383c-.939,3.682-1.711,7.095-2.358,10.433a6.334,6.334,0,0,0,.854.048A10.456,10.456,0,0,0,49.476,20l.3-1.619a2.09,2.09,0,0,1,1.734-.577c.106,0,.227,0,.393.005l.105,0h.214l.066,0c.188,0,.3,0,.389-.011.722.013.874.586,1.022,1.141l0,.007,0,.006,0,.006,0,.006a2.417,2.417,0,0,0,.29.752,7.222,7.222,0,0,1,1.1-.079h.071a4.325,4.325,0,0,0,1.63-.23l-2.388-7.446L53.376,9.332h-.146l-.085,0C52.776,9.321,52.529,9.318,52.318,9.318Zm7.834-.493h0l-.124.009a14.341,14.341,0,0,0-2.857.386c-.05,2.77.154,5.575.351,8.287l.036.509c.022.293.042.584.061.87l.173.548a4.276,4.276,0,0,1,.823-.058h.471a2.511,2.511,0,0,0,1.327-.258l-.191-4.248a.253.253,0,0,0,.048-.065l.01-.015.008-.013c.03-.054.062-.11.124-.11a.218.218,0,0,1,.086.026c.633.811,1.151,1.626,1.567,2.282l.01.015.006.009.02.033.011.017.018.03.014.023.027.043c.359.564.765,1.2,1.229,1.845.247-.011.42-.015.559-.015l.227,0H64.3l.108,0,.106,0h.125l.131,0h.148l.184,0a5.865,5.865,0,0,0,1.733-.206C66.71,15.4,66.5,11.962,66.21,8.572h-.071l-.334-.01h-.093l-.062,0-.071,0-.071,0-.077,0c-.143,0-.292-.007-.437-.007a4.536,4.536,0,0,0-1.679.249c.075.673.085,1.382.094,2.069v.215a16.514,16.514,0,0,0,.1,1.965l-.366.084L60.512,9.012l-.36-.186Zm8.811,6.931a5.653,5.653,0,0,0-1.3,2.142,5.993,5.993,0,0,0,2.179.961l.016,0,.049.014.012,0c.252.072.393.114.519.153a7.111,7.111,0,0,0,1.631.2,5.13,5.13,0,0,0,3.9-1.628,3.2,3.2,0,0,0,.6-3.329c-.534-1.649-1.97-1.9-3.358-2.151a6.115,6.115,0,0,1-2.366-.754.56.56,0,0,1-.163-.413,1.328,1.328,0,0,1,.461-.847A1.739,1.739,0,0,1,72.184,9.8a4.629,4.629,0,0,1,1.856.537l.011.005.053.024.056.025.055.024.011.005.01.005.026.011c.187.081.333.141.483.193.453-.434,1.2-1.279,1.121-2.054a6.835,6.835,0,0,0-3.745-1.053A6.123,6.123,0,0,0,68.372,8.7a3.268,3.268,0,0,0-.779,3.147,3.384,3.384,0,0,0,2.484,2.3,4.473,4.473,0,0,0,1.469.162,2.774,2.774,0,0,1,1.9.42,1.233,1.233,0,0,1,.3.932,1.27,1.27,0,0,1-1.25.787h-.031a2.58,2.58,0,0,1-.554.05,5.522,5.522,0,0,1-1.857-.419l-.009,0a7.409,7.409,0,0,0-1.087-.325h0Z" transform="translate(0 0)" fill="#ddd"/>
  <path id="Fill_2" data-name="Fill 2" d="M1.768,6.009c1.38-1.419.427-3.6.279-5.322C1.785.143.8-.325.34.295A8.769,8.769,0,0,0,.425,5.353a1.162,1.162,0,0,0,1.343.656" transform="translate(16.694 26.33)" fill="#ddd"/>
  <path id="Fill_3" data-name="Fill 3" d="M1.287,4.621A26.745,26.745,0,0,0,.376,0,21.2,21.2,0,0,0,.015,4.776a1.284,1.284,0,0,0,1.271-.155" transform="translate(91.993 24.497)" fill="#ddd"/>
  <path id="Fill_4" data-name="Fill 4" d="M.5,0A10.7,10.7,0,0,0,0,2.429a1.628,1.628,0,0,0,1.445-.061A7.613,7.613,0,0,0,.5,0" transform="translate(50.648 12.719)" fill="#ddd"/>
</svg>
