<svg xmlns="http://www.w3.org/2000/svg" width="185.458" height="37.842" viewBox="0 0 185.458 37.842">
  <path id="Wired_Logo" data-name="Wired Logo" d="M185.456,37.842H148.3V0h37.16V37.842Zm-28.862-5.91h.059c1.08-.027,5.246-.112,13.464-.112a8.427,8.427,0,0,0,6.372-2.4c2.665-2.8,2.493-7.1,2.491-7.142V15.114c0-3.543-1.356-6.1-4.029-7.6a13.171,13.171,0,0,0-6.191-1.431c-.6,0-1,.033-1.137.047h-11.03Zm-45.118,5.91H74.32V0h37.159V37.842ZM82.843,31.478h5V21.591l.034,0,.176,0c4.343-.09,6.67-.109,7.858-.109A2.685,2.685,0,0,1,98.5,23.636a7.582,7.582,0,0,1,.37,2.16v5.569h5.114v-5.91c0-2.76-1.051-4.126-1.932-4.786a3.992,3.992,0,0,0-1.93-.781,3.531,3.531,0,0,0,1.93-1.037c.882-.868,1.932-2.655,1.932-6.236,0-2.664-.928-4.57-2.757-5.664a7.118,7.118,0,0,0-3.463-.931c-.084,0-.134,0-.143,0H82.843ZM37.158,37.842H0V0H37.16V37.842ZM8.41,31.705H14.66l4.432-18.637,4.091,18.523h6.364L34.773,6.137H29.888L26.479,25.909,21.932,6.251l-5.569-.114L11.819,25.568,8.3,6.137H3.183Zm38.807-.056V27.331h6.251V10.284H47.217V5.966H65.173v4.318H58.354V27.331h6.819v4.318Zm71.081-.057v-4.2h3.523V10.228H118.3V6.022H140v8.3h-4.66V10.228H126.48V16.25H133.3v4.2H126.48v6.933h9.2V23.3H140v8.3Z" fill="#ddd"/>
</svg>
